<mxfile host="app.diagrams.net" agent="Mozilla/5.0 (Windows NT 10.0; Win64; x64) AppleWebKit/537.36 (KHTML, like Gecko) Chrome/132.0.0.0 Safari/537.36 OPR/117.0.0.0 (Edition std-1)" version="26.2.13">
  <diagram name="Page-1" id="6BgvNLLH9mB0-3ZaWdmu">
    <mxGraphModel dx="1180" dy="675" grid="1" gridSize="10" guides="1" tooltips="1" connect="1" arrows="1" fold="1" page="1" pageScale="1" pageWidth="827" pageHeight="1169" math="0" shadow="0">
      <root>
        <mxCell id="0" />
        <mxCell id="1" parent="0" />
        <mxCell id="jeyQ8Pxxj93HgxO3kcwC-35" value="&lt;span style=&quot;font-weight: normal;&quot;&gt;&lt;font style=&quot;font-size: 14px;&quot;&gt;User&lt;/font&gt;&lt;/span&gt;" style="swimlane;horizontal=0;whiteSpace=wrap;html=1;startSize=23;" vertex="1" parent="1">
          <mxGeometry x="360" y="380" width="1110" height="80" as="geometry" />
        </mxCell>
        <mxCell id="jeyQ8Pxxj93HgxO3kcwC-36" value="&lt;font style=&quot;font-size: 14px; font-weight: normal;&quot;&gt;My Waze&lt;/font&gt;" style="swimlane;horizontal=0;whiteSpace=wrap;html=1;startSize=23;" vertex="1" parent="1">
          <mxGeometry x="360" y="530" width="1110" height="280" as="geometry" />
        </mxCell>
        <mxCell id="jeyQ8Pxxj93HgxO3kcwC-37" value="" style="shape=mxgraph.bpmn.shape;html=1;verticalLabelPosition=bottom;labelBackgroundColor=#ffffff;verticalAlign=top;perimeter=ellipsePerimeter;outline=end;symbol=general;" vertex="1" parent="jeyQ8Pxxj93HgxO3kcwC-36">
          <mxGeometry x="940" y="210" width="50" height="50" as="geometry" />
        </mxCell>
        <mxCell id="jeyQ8Pxxj93HgxO3kcwC-41" value="Calculate estimated time of arrival with speed and distance left" style="points=[[0.25,0,0],[0.5,0,0],[0.75,0,0],[1,0.25,0],[1,0.5,0],[1,0.75,0],[0.75,1,0],[0.5,1,0],[0.25,1,0],[0,0.75,0],[0,0.5,0],[0,0.25,0]];shape=mxgraph.bpmn.task2;whiteSpace=wrap;rectStyle=rounded;size=10;html=1;container=1;expand=0;collapsible=0;taskMarker=service;" vertex="1" parent="jeyQ8Pxxj93HgxO3kcwC-36">
          <mxGeometry x="590" y="70" width="120" height="80" as="geometry" />
        </mxCell>
        <mxCell id="jeyQ8Pxxj93HgxO3kcwC-42" style="edgeStyle=orthogonalEdgeStyle;rounded=0;html=1;jettySize=auto;orthogonalLoop=1;exitX=0.5;exitY=0;exitDx=0;exitDy=0;exitPerimeter=0;entryX=0.5;entryY=0;entryDx=0;entryDy=0;entryPerimeter=0;" edge="1" parent="jeyQ8Pxxj93HgxO3kcwC-36" source="jeyQ8Pxxj93HgxO3kcwC-46" target="jeyQ8Pxxj93HgxO3kcwC-59">
          <mxGeometry relative="1" as="geometry">
            <Array as="points">
              <mxPoint x="965" y="40" />
              <mxPoint x="315" y="40" />
            </Array>
            <mxPoint x="780" y="120" as="sourcePoint" />
            <mxPoint x="270" y="180" as="targetPoint" />
          </mxGeometry>
        </mxCell>
        <mxCell id="jeyQ8Pxxj93HgxO3kcwC-90" value="Yes" style="edgeLabel;html=1;align=center;verticalAlign=middle;resizable=0;points=[];" vertex="1" connectable="0" parent="jeyQ8Pxxj93HgxO3kcwC-42">
          <mxGeometry x="-0.9367" y="2" relative="1" as="geometry">
            <mxPoint as="offset" />
          </mxGeometry>
        </mxCell>
        <mxCell id="jeyQ8Pxxj93HgxO3kcwC-82" style="edgeStyle=orthogonalEdgeStyle;rounded=0;orthogonalLoop=1;jettySize=auto;html=1;exitX=0.5;exitY=1;exitDx=0;exitDy=0;exitPerimeter=0;entryX=0.5;entryY=0;entryDx=0;entryDy=0;" edge="1" parent="jeyQ8Pxxj93HgxO3kcwC-36" source="jeyQ8Pxxj93HgxO3kcwC-46" target="jeyQ8Pxxj93HgxO3kcwC-37">
          <mxGeometry relative="1" as="geometry" />
        </mxCell>
        <mxCell id="jeyQ8Pxxj93HgxO3kcwC-83" value="No" style="edgeLabel;html=1;align=center;verticalAlign=middle;resizable=0;points=[];" vertex="1" connectable="0" parent="jeyQ8Pxxj93HgxO3kcwC-82">
          <mxGeometry x="0.1724" y="1" relative="1" as="geometry">
            <mxPoint as="offset" />
          </mxGeometry>
        </mxCell>
        <mxCell id="jeyQ8Pxxj93HgxO3kcwC-46" value="" style="points=[[0.25,0.25,0],[0.5,0,0],[0.75,0.25,0],[1,0.5,0],[0.75,0.75,0],[0.5,1,0],[0.25,0.75,0],[0,0.5,0]];shape=mxgraph.bpmn.gateway2;html=1;verticalLabelPosition=bottom;labelBackgroundColor=#ffffff;verticalAlign=top;align=center;perimeter=rhombusPerimeter;outlineConnect=0;outline=none;symbol=none;gwType=exclusive;" vertex="1" parent="jeyQ8Pxxj93HgxO3kcwC-36">
          <mxGeometry x="940" y="85" width="50" height="50" as="geometry" />
        </mxCell>
        <mxCell id="jeyQ8Pxxj93HgxO3kcwC-47" value="Display estimated time of arrival by foot on screen" style="points=[[0.25,0,0],[0.5,0,0],[0.75,0,0],[1,0.25,0],[1,0.5,0],[1,0.75,0],[0.75,1,0],[0.5,1,0],[0.25,1,0],[0,0.75,0],[0,0.5,0],[0,0.25,0]];shape=mxgraph.bpmn.task2;whiteSpace=wrap;rectStyle=rounded;size=10;html=1;container=1;expand=0;collapsible=0;taskMarker=service;" vertex="1" parent="jeyQ8Pxxj93HgxO3kcwC-36">
          <mxGeometry x="770" y="70" width="120" height="80" as="geometry" />
        </mxCell>
        <mxCell id="jeyQ8Pxxj93HgxO3kcwC-48" value="" style="endArrow=none;dashed=1;html=1;dashPattern=1 3;strokeWidth=2;rounded=0;exitX=0.5;exitY=0;exitDx=0;exitDy=0;exitPerimeter=0;" edge="1" parent="jeyQ8Pxxj93HgxO3kcwC-36" source="jeyQ8Pxxj93HgxO3kcwC-47">
          <mxGeometry width="50" height="50" relative="1" as="geometry">
            <mxPoint x="970" y="70" as="sourcePoint" />
            <mxPoint x="830" y="-60" as="targetPoint" />
          </mxGeometry>
        </mxCell>
        <mxCell id="jeyQ8Pxxj93HgxO3kcwC-53" value="" style="edgeStyle=orthogonalEdgeStyle;rounded=0;html=1;jettySize=auto;orthogonalLoop=1;exitX=1;exitY=0.5;exitDx=0;exitDy=0;exitPerimeter=0;entryX=0;entryY=0.5;entryDx=0;entryDy=0;entryPerimeter=0;" edge="1" parent="jeyQ8Pxxj93HgxO3kcwC-36" source="jeyQ8Pxxj93HgxO3kcwC-58" target="jeyQ8Pxxj93HgxO3kcwC-41">
          <mxGeometry relative="1" as="geometry">
            <mxPoint x="690" y="400" as="sourcePoint" />
            <mxPoint x="520" y="110" as="targetPoint" />
          </mxGeometry>
        </mxCell>
        <mxCell id="jeyQ8Pxxj93HgxO3kcwC-58" value="Get Speed of User and his location&lt;div&gt;&amp;nbsp;from GPS update&lt;/div&gt;" style="points=[[0.25,0,0],[0.5,0,0],[0.75,0,0],[1,0.25,0],[1,0.5,0],[1,0.75,0],[0.75,1,0],[0.5,1,0],[0.25,1,0],[0,0.75,0],[0,0.5,0],[0,0.25,0]];shape=mxgraph.bpmn.task2;whiteSpace=wrap;rectStyle=rounded;size=10;html=1;container=1;expand=0;collapsible=0;taskMarker=service;" vertex="1" parent="jeyQ8Pxxj93HgxO3kcwC-36">
          <mxGeometry x="400" y="70" width="120" height="80" as="geometry" />
        </mxCell>
        <mxCell id="jeyQ8Pxxj93HgxO3kcwC-59" value="" style="points=[[0.25,0.25,0],[0.5,0,0],[0.75,0.25,0],[1,0.5,0],[0.75,0.75,0],[0.5,1,0],[0.25,0.75,0],[0,0.5,0]];shape=mxgraph.bpmn.gateway2;html=1;verticalLabelPosition=bottom;labelBackgroundColor=#ffffff;verticalAlign=top;align=center;perimeter=rhombusPerimeter;outlineConnect=0;outline=none;symbol=none;gwType=exclusive;" vertex="1" parent="jeyQ8Pxxj93HgxO3kcwC-36">
          <mxGeometry x="290" y="85" width="50" height="50" as="geometry" />
        </mxCell>
        <mxCell id="jeyQ8Pxxj93HgxO3kcwC-65" value="Map Data" style="shape=datastore;html=1;labelPosition=center;verticalLabelPosition=bottom;align=center;verticalAlign=top;" vertex="1" parent="jeyQ8Pxxj93HgxO3kcwC-36">
          <mxGeometry x="625" y="170" width="50" height="55" as="geometry" />
        </mxCell>
        <mxCell id="jeyQ8Pxxj93HgxO3kcwC-66" value="" style="endArrow=classic;html=1;rounded=0;entryX=0.5;entryY=1;entryDx=0;entryDy=0;entryPerimeter=0;exitX=0.5;exitY=0;exitDx=0;exitDy=0;" edge="1" parent="jeyQ8Pxxj93HgxO3kcwC-36" source="jeyQ8Pxxj93HgxO3kcwC-65" target="jeyQ8Pxxj93HgxO3kcwC-41">
          <mxGeometry width="50" height="50" relative="1" as="geometry">
            <mxPoint x="640" y="200" as="sourcePoint" />
            <mxPoint x="690" y="150" as="targetPoint" />
          </mxGeometry>
        </mxCell>
        <mxCell id="jeyQ8Pxxj93HgxO3kcwC-70" value="User selects destination" style="shape=mxgraph.bpmn.shape;html=1;verticalLabelPosition=bottom;labelBackgroundColor=#ffffff;verticalAlign=top;perimeter=ellipsePerimeter;outline=standard;symbol=general;" vertex="1" parent="jeyQ8Pxxj93HgxO3kcwC-36">
          <mxGeometry x="80" y="85" width="50" height="50" as="geometry" />
        </mxCell>
        <mxCell id="jeyQ8Pxxj93HgxO3kcwC-71" value="" style="shape=message;whiteSpace=wrap;html=1;" vertex="1" parent="jeyQ8Pxxj93HgxO3kcwC-36">
          <mxGeometry x="85" y="95" width="40" height="30" as="geometry" />
        </mxCell>
        <mxCell id="jeyQ8Pxxj93HgxO3kcwC-72" value="" style="shape=flexArrow;endArrow=classic;html=1;rounded=0;width=5.76;endSize=2.7312;endWidth=6.9184;" edge="1" parent="jeyQ8Pxxj93HgxO3kcwC-36">
          <mxGeometry width="50" height="50" relative="1" as="geometry">
            <mxPoint x="104.88999999999999" y="75" as="sourcePoint" />
            <mxPoint x="104.88999999999999" y="85" as="targetPoint" />
          </mxGeometry>
        </mxCell>
        <mxCell id="jeyQ8Pxxj93HgxO3kcwC-73" value="" style="endArrow=none;dashed=1;html=1;dashPattern=1 3;strokeWidth=2;rounded=0;exitX=0.5;exitY=0;exitDx=0;exitDy=0;" edge="1" parent="jeyQ8Pxxj93HgxO3kcwC-36" source="jeyQ8Pxxj93HgxO3kcwC-70" target="jeyQ8Pxxj93HgxO3kcwC-75">
          <mxGeometry width="50" height="50" relative="1" as="geometry">
            <mxPoint x="320" y="160" as="sourcePoint" />
            <mxPoint x="135" y="-70" as="targetPoint" />
          </mxGeometry>
        </mxCell>
        <mxCell id="jeyQ8Pxxj93HgxO3kcwC-74" value="send destination" style="edgeLabel;html=1;align=center;verticalAlign=middle;resizable=0;points=[];" vertex="1" connectable="0" parent="jeyQ8Pxxj93HgxO3kcwC-73">
          <mxGeometry x="0.2117" y="-3" relative="1" as="geometry">
            <mxPoint as="offset" />
          </mxGeometry>
        </mxCell>
        <mxCell id="jeyQ8Pxxj93HgxO3kcwC-75" value="" style="ellipse;whiteSpace=wrap;html=1;" vertex="1" parent="jeyQ8Pxxj93HgxO3kcwC-36">
          <mxGeometry x="95" y="-70" width="20" height="20" as="geometry" />
        </mxCell>
        <mxCell id="jeyQ8Pxxj93HgxO3kcwC-85" style="edgeStyle=orthogonalEdgeStyle;rounded=0;orthogonalLoop=1;jettySize=auto;html=1;entryX=0;entryY=0.5;entryDx=0;entryDy=0;entryPerimeter=0;" edge="1" parent="jeyQ8Pxxj93HgxO3kcwC-36" source="jeyQ8Pxxj93HgxO3kcwC-59" target="jeyQ8Pxxj93HgxO3kcwC-58">
          <mxGeometry relative="1" as="geometry" />
        </mxCell>
        <mxCell id="jeyQ8Pxxj93HgxO3kcwC-86" style="edgeStyle=orthogonalEdgeStyle;rounded=0;orthogonalLoop=1;jettySize=auto;html=1;entryX=0;entryY=0.5;entryDx=0;entryDy=0;entryPerimeter=0;" edge="1" parent="jeyQ8Pxxj93HgxO3kcwC-36" source="jeyQ8Pxxj93HgxO3kcwC-41" target="jeyQ8Pxxj93HgxO3kcwC-47">
          <mxGeometry relative="1" as="geometry" />
        </mxCell>
        <mxCell id="jeyQ8Pxxj93HgxO3kcwC-87" style="edgeStyle=orthogonalEdgeStyle;rounded=0;orthogonalLoop=1;jettySize=auto;html=1;entryX=0;entryY=0.5;entryDx=0;entryDy=0;entryPerimeter=0;" edge="1" parent="jeyQ8Pxxj93HgxO3kcwC-36" source="jeyQ8Pxxj93HgxO3kcwC-47" target="jeyQ8Pxxj93HgxO3kcwC-46">
          <mxGeometry relative="1" as="geometry" />
        </mxCell>
        <mxCell id="jeyQ8Pxxj93HgxO3kcwC-88" value="&lt;span style=&quot;background-color: rgb(255, 255, 255);&quot;&gt;Is the trip still active?&lt;/span&gt;" style="text;html=1;align=center;verticalAlign=middle;resizable=0;points=[];autosize=1;strokeColor=none;fillColor=none;" vertex="1" parent="jeyQ8Pxxj93HgxO3kcwC-36">
          <mxGeometry x="980" y="95" width="130" height="30" as="geometry" />
        </mxCell>
        <mxCell id="jeyQ8Pxxj93HgxO3kcwC-55" value="" style="shape=mxgraph.bpmn.shape;html=1;verticalLabelPosition=bottom;labelBackgroundColor=#ffffff;verticalAlign=top;perimeter=ellipsePerimeter;outline=standard;symbol=general;" vertex="1" parent="1">
          <mxGeometry x="560" y="615" width="50" height="50" as="geometry" />
        </mxCell>
        <mxCell id="jeyQ8Pxxj93HgxO3kcwC-56" value="" style="shape=message;whiteSpace=wrap;html=1;" vertex="1" parent="1">
          <mxGeometry x="565" y="625" width="40" height="30" as="geometry" />
        </mxCell>
        <mxCell id="jeyQ8Pxxj93HgxO3kcwC-61" value="" style="shape=flexArrow;endArrow=classic;html=1;rounded=0;width=5.76;endSize=2.7312;endWidth=6.9184;" edge="1" parent="1">
          <mxGeometry width="50" height="50" relative="1" as="geometry">
            <mxPoint x="584.89" y="605" as="sourcePoint" />
            <mxPoint x="584.89" y="615" as="targetPoint" />
          </mxGeometry>
        </mxCell>
        <mxCell id="jeyQ8Pxxj93HgxO3kcwC-62" value="" style="endArrow=none;dashed=1;html=1;dashPattern=1 3;strokeWidth=2;rounded=0;exitX=0.5;exitY=0;exitDx=0;exitDy=0;" edge="1" parent="1" source="jeyQ8Pxxj93HgxO3kcwC-55" target="jeyQ8Pxxj93HgxO3kcwC-64">
          <mxGeometry width="50" height="50" relative="1" as="geometry">
            <mxPoint x="800" y="690" as="sourcePoint" />
            <mxPoint x="615" y="460" as="targetPoint" />
          </mxGeometry>
        </mxCell>
        <mxCell id="jeyQ8Pxxj93HgxO3kcwC-63" value="Send GPS update" style="edgeLabel;html=1;align=center;verticalAlign=middle;resizable=0;points=[];" vertex="1" connectable="0" parent="jeyQ8Pxxj93HgxO3kcwC-62">
          <mxGeometry x="0.2117" y="-3" relative="1" as="geometry">
            <mxPoint as="offset" />
          </mxGeometry>
        </mxCell>
        <mxCell id="jeyQ8Pxxj93HgxO3kcwC-64" value="" style="ellipse;whiteSpace=wrap;html=1;" vertex="1" parent="1">
          <mxGeometry x="575" y="460" width="20" height="20" as="geometry" />
        </mxCell>
        <mxCell id="jeyQ8Pxxj93HgxO3kcwC-76" style="edgeStyle=orthogonalEdgeStyle;rounded=0;orthogonalLoop=1;jettySize=auto;html=1;exitX=1;exitY=0.5;exitDx=0;exitDy=0;entryX=0;entryY=0.5;entryDx=0;entryDy=0;" edge="1" parent="1" source="jeyQ8Pxxj93HgxO3kcwC-70" target="jeyQ8Pxxj93HgxO3kcwC-55">
          <mxGeometry relative="1" as="geometry" />
        </mxCell>
        <mxCell id="jeyQ8Pxxj93HgxO3kcwC-84" style="edgeStyle=orthogonalEdgeStyle;rounded=0;orthogonalLoop=1;jettySize=auto;html=1;entryX=0;entryY=0.5;entryDx=0;entryDy=0;entryPerimeter=0;" edge="1" parent="1" source="jeyQ8Pxxj93HgxO3kcwC-55" target="jeyQ8Pxxj93HgxO3kcwC-59">
          <mxGeometry relative="1" as="geometry" />
        </mxCell>
        <mxCell id="jeyQ8Pxxj93HgxO3kcwC-49" value="" style="shape=flexArrow;endArrow=classic;html=1;rounded=0;width=5.76;endSize=2.7312;endWidth=6.9184;" edge="1" parent="1">
          <mxGeometry width="50" height="50" relative="1" as="geometry">
            <mxPoint x="1189.6599999999999" y="470" as="sourcePoint" />
            <mxPoint x="1189.6599999999999" y="460" as="targetPoint" />
          </mxGeometry>
        </mxCell>
      </root>
    </mxGraphModel>
  </diagram>
</mxfile>
